<mxfile host="app.diagrams.net" modified="2023-12-15T16:53:39.834Z" agent="Mozilla/5.0 (Windows NT 10.0; Win64; x64) AppleWebKit/537.36 (KHTML, like Gecko) Chrome/119.0.0.0 Safari/537.36" version="22.1.11" etag="3sET45d57YI6A5yrrl1p" type="github">
  <diagram name="Page-1" id="Jqd2Dm-cpl8of9shMZwQ">
    <mxGraphModel>
      <root>
        <mxCell id="0" />
        <mxCell id="1" parent="0" />
      </root>
    </mxGraphModel>
  </diagram>
</mxfile>
